<?xml version="1.0" encoding="UTF-8"?>
<svg xmlns="http://www.w3.org/2000/svg" xmlns:xlink="http://www.w3.org/1999/xlink" width="64px" height="64px" viewBox="0 0 64 64" version="1.1">
<g id="surface1">
<path style=" stroke:none;fill-rule:nonzero;fill:rgb(18.039216%,20.392157%,21.176471%);fill-opacity:1;" d="M 32 4 C 25.375 4 20 9.375 20 16 C 20 22.625 25.375 28 32 28 C 38.625 28 44 22.625 44 16 C 44 9.375 38.625 4 32 4 Z M 26 32 C 16.03125 32 8 40.03125 8 50 L 8 52 C 8 56.4375 11.5625 60 16 60 L 48 60 C 52.4375 60 56 56.4375 56 52 L 56 50 C 56 40.03125 47.96875 32 38 32 Z M 26 32 "/>
</g>
</svg>
